<svg width="13" height="16" viewBox="0 0 13 16" fill="none" xmlns="http://www.w3.org/2000/svg">
<path d="M11.7263 10.9109L9.88811 10.6526C9.44667 10.5903 9.01246 10.7773 8.70128 11.1603L7.36971 12.7992C5.3217 11.5166 3.64276 9.45909 2.60067 6.92954L3.93947 5.28177C4.25065 4.89878 4.40263 4.36436 4.35197 3.82104L4.1421 1.57652C4.05526 0.676922 3.44013 0 2.70198 0H1.45002C0.632259 0 -0.0479991 0.837245 0.00265842 1.84372C0.386208 9.45018 5.32894 15.5247 11.5019 15.9967C12.3197 16.0591 12.9999 15.2218 12.9999 14.2154V12.6745C13.0072 11.7749 12.4572 11.0178 11.7263 10.9109Z" fill="#460935"/>
</svg>
