<svg width="13" height="16" viewBox="0 0 13 16" fill="none" xmlns="http://www.w3.org/2000/svg">
<path d="M6.5 8.13111C7.39375 8.13111 8.125 7.39931 8.125 6.50489C8.125 5.61047 7.39375 4.87867 6.5 4.87867C5.60625 4.87867 4.875 5.61047 4.875 6.50489C4.875 7.39931 5.60625 8.13111 6.5 8.13111ZM6.5 0C9.9125 0 13 2.61822 13 6.66751C13 9.25321 11.0094 12.2942 7.03625 15.7988C6.7275 16.0671 6.26437 16.0671 5.95563 15.7988C1.99062 12.2942 0 9.25321 0 6.66751C0 2.61822 3.0875 0 6.5 0Z" fill="#460935"/>
</svg>
